<?xml version="1.0" encoding="UTF-8"?>
<svg version="1.1" viewBox="0 0 1477 500" xmlns="http://www.w3.org/2000/svg">
<title>App Store</title>
<desc>Created with Sketch.</desc>
<g fill="none" fill-rule="evenodd">
<g transform="translate(-462 -850)">
<g transform="translate(462 850)">
<rect width="1477" height="500" rx="60" fill="#000"/>
<g transform="translate(131 88)" fill="#fff">
<path d="m192.34 150.55c-0.32181-35.765 29.285-53.165 30.639-53.975-16.767-24.447-42.756-27.787-51.889-28.053-21.828-2.2971-43.001 13.061-54.12 13.061-11.341 0-28.464-12.839-46.918-12.462-23.747 0.3662-45.963 14.115-58.148 35.466-25.146 43.533-6.3918 107.51 17.7 142.7 12.051 17.245 26.133 36.476 44.565 35.799 18.032-0.7324 24.768-11.496 46.529-11.496 21.561 0 27.887 11.496 46.685 11.053 19.353-0.28852 31.537-17.3 43.167-34.7 13.927-19.73 19.519-39.205 19.741-40.204-0.44388-0.14426-37.574-14.315-37.951-57.182"/>
<path d="m156.83 45.378c9.6987-12.129 16.335-28.63 14.493-45.375-14.038 0.62143-31.593 9.7098-41.702 21.572-8.9441 10.453-16.934 27.587-14.87 43.7 15.769 1.1763 31.959-7.9565 42.08-19.897"/>
</g>
<g transform="translate(460 219)" fill="#fff">
<path d="m124.53 149.61h-25.201l-13.805-43.378h-47.983l-13.15 43.378h-24.535l47.55-147.68h29.362l47.761 147.68zm-43.167-61.577-12.484-38.551c-1.3205-3.9505-3.8062-13.228-7.446-27.831h-0.44388c-1.4648 6.2809-3.8062 15.558-7.0133 27.831l-12.273 38.551h39.66z"/>
<path d="m246.57 95.058c0 18.11-4.9159 32.425-14.759 42.934-8.811 9.3547-19.764 14.027-32.825 14.027-14.104 0-24.247-5.0269-30.406-15.114v55.873h-23.659v-114.65c0-11.374-0.29962-23.037-0.87666-35h20.807l1.3205 16.89h0.44388c7.8899-12.728 19.863-19.087 35.932-19.087 12.562 0 23.048 4.9603 31.438 14.892 8.3782 9.9539 12.584 23.026 12.584 39.239zm-24.103 0.86556c0-10.365-2.3304-18.909-7.0133-25.634-5.1157-7.0022-11.985-10.52-20.596-10.52-5.837 0-11.141 1.9531-15.88 5.8148-4.7495 3.8728-7.8566 8.9441-9.3103 15.236-0.7324 2.9185-1.0986 5.3043-1.0986 7.1908v17.777c0 7.7235 2.3747 14.26 7.1242 19.608 4.7495 5.3265 10.919 8.0009 18.51 8.0009 8.9108 0 15.846-3.4511 20.807-10.298 4.9714-6.869 7.4571-15.924 7.4571-27.176z"/>
<path d="m369.05 95.058c0 18.11-4.9159 32.425-14.759 42.934-8.8221 9.3547-19.764 14.027-32.836 14.027-14.093 0-24.236-5.0269-30.406-15.114v55.873h-23.659v-114.65c0-11.374-0.29962-23.037-0.87666-35h20.807l1.3205 16.89h0.44388c7.8788-12.728 19.852-19.087 35.932-19.087 12.551 0 23.048 4.9603 31.449 14.892 8.3671 9.9539 12.584 23.026 12.584 39.239zm-24.114 0.86556c0-10.365-2.3414-18.909-7.0244-25.634-5.1046-7.0022-11.962-10.52-20.574-10.52-5.837 0-11.141 1.9531-15.902 5.8148-4.7384 3.8728-7.8455 8.9441-9.2992 15.236-0.7213 2.9185-1.1097 5.3043-1.1097 7.1908v17.777c0 7.7235 2.3858 14.26 7.1131 19.608 4.7495 5.3154 10.919 8.0009 18.532 8.0009 8.9219 0 15.857-3.4511 20.807-10.298 4.9714-6.869 7.4571-15.924 7.4571-27.176z"/>
<path d="m505.99 108.2c0 12.562-4.3833 22.782-13.128 30.672-9.6099 8.6112-23.026 12.928-40.226 12.928-15.891 0-28.63-3.0628-38.24-9.1993l5.4708-19.719c10.376 6.1366 21.772 9.2104 34.179 9.2104 8.9219 0 15.857-2.0196 20.807-6.0256 4.9714-4.0282 7.4682-9.388 7.4682-16.091 0-6.0034-2.064-11.041-6.1477-15.136-4.0948-4.0726-10.864-7.8899-20.363-11.374-25.856-9.6432-38.795-23.759-38.795-42.301 0-12.118 4.5719-22.038 13.683-29.795 9.1217-7.7456 21.217-11.618 36.265-11.618 13.438 0 24.635 2.3415 33.524 7.0133l-5.9369 19.286c-8.3671-4.5275-17.811-6.7913-28.375-6.7913-8.3449 0-14.903 2.0529-19.575 6.1366-3.9394 3.6509-5.9479 8.1008-5.9479 13.383 0 5.8259 2.2749 10.664 6.8135 14.448 3.9283 3.5066 11.097 7.3129 21.461 11.397 12.717 5.1268 22.05 11.097 28.042 17.955 6.0256 6.8579 9.0218 15.414 9.0218 25.623"/>
<path d="m584.41 60.879h-26.078v51.701c0 13.15 4.5941 19.708 13.805 19.708 4.2279 0 7.7346-0.3551 10.509-1.0986l0.65472 17.966c-4.6607 1.7422-10.797 2.6189-18.388 2.6189-9.3547 0-16.645-2.863-21.928-8.5557-5.2599-5.7038-7.8899-15.258-7.8899-28.708v-53.676h-15.525v-17.755h15.525v-19.497l23.237-7.0133v26.511h26.078v17.799"/>
<path d="m701.84 95.49c0 16.368-4.6718 29.806-14.027 40.315-9.7764 10.808-22.782 16.213-38.995 16.213-15.647 0-28.086-5.1823-37.363-15.547s-13.916-23.437-13.916-39.205c0-16.501 4.805-30.017 14.348-40.526 9.5655-10.509 22.46-15.78 38.673-15.78 15.636 0 28.175 5.2045 37.685 15.558 9.0773 10.065 13.594 23.037 13.594 38.972zm-24.524 0.54375c0-9.7542-2.1084-18.121-6.3363-25.123-4.9603-8.4559-12.073-12.673-21.262-12.673-9.4657 0-16.756 4.2168-21.694 12.673-4.2501 7.0022-6.3474 15.513-6.3474 25.567 0 9.7653 2.0973 18.155 6.3474 25.123 5.1157 8.4669 12.251 12.695 21.506 12.695 9.0329 0 16.124-4.3278 21.262-12.895 4.3389-7.1686 6.525-15.591 6.525-25.368z"/>
<path d="m778.77 63.931c-2.3414-0.43278-4.8494-0.64362-7.4571-0.64362-8.3227 0-14.759 3.1182-19.286 9.4213-3.9394 5.5485-5.9036 12.562-5.9036 21.029v55.873h-23.659v-72.951c0-12.262-0.23304-23.459-0.68801-33.524h20.607l0.86556 20.374h0.65472c2.5079-7.0022 6.4362-12.65 11.829-16.867 5.2821-3.8173 10.964-5.7149 17.1-5.7149 2.1861 0 4.1613 0.16645 5.9147 0.43278l0.022194 22.571"/>
<path d="m884.58 91.329c0 4.239-0.27742 7.8122-0.86556 10.731h-70.965c0.25523 10.52 3.7064 18.576 10.287 24.125 5.9812 4.9492 13.727 7.4349 23.215 7.4349 10.509 0 20.097-1.6645 28.719-5.038l3.7064 16.423c-10.076 4.3833-21.983 6.5805-35.699 6.5805-16.512 0-29.473-4.8604-38.906-14.559-9.3991-9.7098-14.126-22.771-14.126-39.106 0-16.046 4.3722-29.418 13.161-40.082 9.1882-11.385 21.606-17.078 37.23-17.078 15.347 0 26.966 5.6927 34.844 17.078 6.2587 9.0218 9.3991 20.207 9.3991 33.491zm-22.56-6.1366c0.16645-7.0244-1.3871-13.061-4.5941-18.188-4.0948-6.5916-10.398-9.8763-18.843-9.8763-7.7456 0-14.038 3.207-18.831 9.6432-3.9394 5.1157-6.2809 11.274-7.0022 18.399l49.27 0.022194z"/>
</g>
<g transform="translate(469 92)" fill="#fff">
<path d="m60.954 76.078h-12.395l-6.7802-21.317h-23.581l-6.4695 21.317h-12.062l23.37-72.585h14.426l23.492 72.585zm-21.217-30.261-6.1366-18.954c-0.64362-1.942-1.831-6.4584-3.662-13.671h-0.22194c-0.75459 3.1182-1.831 7.6458-3.4511 13.671l-6.0256 18.954h19.497z"/>
<path d="m119.39 23.745-19.819 52.333h-11.308l-19.175-52.333h12.495l8.9441 27.676c1.5092 4.6274 2.7964 9.044 3.7619 13.239h0.32181c0.86556-3.7619 2.1528-8.1784 3.7619-13.239l8.8331-27.676h12.184"/>
<path d="m161.58 76.078-0.86556-6.0256h-0.32181c-3.551 4.8494-8.7222 7.213-15.292 7.213-9.3658 0-16.046-6.5694-16.046-15.403 0-12.917 11.197-19.597 30.583-19.597v-0.96543c0-6.8912-3.662-10.342-10.875-10.342-5.1712 0-9.6987 1.2983-13.671 3.8839l-2.3636-7.6458c4.8494-3.0184 10.875-4.5275 17.988-4.5275 13.671 0 20.574 7.213 20.574 21.65v19.275c0 5.2821 0.22194 9.3769 0.75459 12.495l-10.464-0.011097zm-1.6202-26.067c-12.928 0-19.386 3.1293-19.386 10.553 0 5.493 3.3402 8.1784 7.9676 8.1784 5.9258 0 11.419-4.5164 11.419-10.653v-8.0786z"/>
<path d="m197.19 15.122c-3.8728 0-6.8912-3.0184-6.8912-7.0022 0-3.9838 3.1182-6.8912 7.1131-6.8912 3.9838 0 7.213 2.9074 7.102 6.8912 0 4.2057-3.0073 7.0022-7.324 7.0022zm-5.5928 8.6223h11.63v52.333h-11.63v-52.333z"/>
<path d="m223.89-0.26911h11.63v76.347h-11.63v-76.347z"/>
<path d="m284.95 76.078-0.87666-6.0256h-0.31071c-3.551 4.8494-8.7222 7.213-15.292 7.213-9.3658 0-16.046-6.5694-16.046-15.403 0-12.917 11.197-19.597 30.583-19.597v-0.96543c0-6.8912-3.662-10.342-10.875-10.342-5.1712 0-9.6987 1.2983-13.671 3.8839l-2.3747-7.6569c4.8494-3.0184 10.875-4.5275 17.988-4.5275 13.671 0 20.585 7.213 20.585 21.65v19.275c0 5.2821 0.22194 9.3769 0.7324 12.495h-10.442zm-1.6202-26.067c-12.928 0-19.386 3.1293-19.386 10.553 0 5.493 3.3402 8.1784 7.9676 8.1784 5.9258 0 11.419-4.5164 11.419-10.653v-8.0786z"/>
<path d="m341.76 77.265c-7.4238 0-12.906-3.1293-16.468-9.2659h-0.22194l-0.66582 8.0786h-9.8985c0.31071-4.1946 0.42168-8.9441 0.42168-14.104v-62.243h11.652v31.671h0.21084c3.4511-5.8148 9.044-8.7222 16.69-8.7222 12.606 0 21.439 10.775 21.439 26.488 0 16.246-9.8097 28.097-23.159 28.097zm-2.3636-45.453c-6.6914 0-12.817 5.8148-12.817 13.893v9.155c0 7.213 5.5041 13.139 12.606 13.139 8.7111 0 13.904-7.102 13.904-18.41-0.011097-10.553-5.4042-17.777-13.694-17.777z"/>
<path d="m382.13-0.26911h11.618v76.347h-11.618v-76.347z"/>
<path d="m457.05 52.708h-34.911c0.23304 9.9095 6.7802 15.502 16.468 15.502 5.1823 0 9.9206-0.86556 14.115-2.4746l1.8088 8.0786c-4.9492 2.1528-10.764 3.2292-17.544 3.2292-16.379 0-26.067-10.342-26.067-26.377 0-16.046 9.9206-28.108 24.768-28.108 13.338 0 21.761 9.9095 21.761 24.879 0.033291 2.0418-0.066581 3.8728-0.39949 5.271zm-10.653-8.2894c0-8.0786-4.1059-13.782-11.541-13.782-6.6803 0-11.94 5.8148-12.717 13.782h24.258z"/>
<path d="m527.54 77.265c-15.292 0-25.201-11.419-25.201-26.921 0-16.157 10.12-27.676 26.078-27.676 15.059 0 25.201 10.875 25.201 26.821 0 16.357-10.453 27.776-26.078 27.776zm0.44388-46.097c-8.4004 0-13.782 7.8566-13.782 18.843 0 10.775 5.493 18.632 13.671 18.632s13.671-8.4004 13.671-18.854c0-10.653-5.382-18.621-13.56-18.621z"/>
<path d="m616.13 76.078h-11.607v-30.05c0-9.2548-3.5621-13.893-10.564-13.893-6.8912 0-11.641 5.9258-11.641 12.817v31.127h-11.607v-37.374c0-4.6274-0.13316-9.5877-0.44388-14.97h10.231l0.54375 8.0786h0.33291c3.096-5.5928 9.4657-9.155 16.579-9.155 10.964 0 18.177 8.4004 18.177 22.072v31.349"/>
<path d="m692.22 32.467h-12.795v25.412c0 6.4695 2.2527 9.6987 6.7691 9.6987 2.0418 0 3.784-0.22194 5.1712-0.54375l0.32181 8.8331c-2.2638 0.86556-5.2932 1.2983-9.0329 1.2983-9.1772 0-14.637-5.0602-14.637-18.31v-26.388h-7.6236v-8.7222h7.6236v-9.5877l11.408-3.4511v13.028h12.795v8.7333"/>
<path d="m753.81 76.078h-11.641v-29.829c0-9.3658-3.5621-14.104-10.553-14.104-6.0256 0-11.618 4.0948-11.618 12.384v31.549h-11.641v-76.347h11.641v31.438h0.22194c3.6509-5.7038 8.9441-8.5113 15.724-8.5113 11.086 0 17.866 8.6112 17.866 22.294v31.127"/>
<path d="m813.24 52.708h-34.9c0.22194 9.9095 6.7691 15.502 16.468 15.502 5.1934 0 9.9206-0.86556 14.093-2.4746l1.8199 8.0786c-4.9381 2.1528-10.764 3.2292-17.555 3.2292-16.368 0-26.056-10.342-26.056-26.377 0-16.046 9.9095-28.108 24.757-28.108 13.35 0 21.761 9.9095 21.761 24.879 0.044388 2.0418-0.066582 3.8728-0.38839 5.271zm-10.664-8.2894c0-8.0786-4.0837-13.782-11.519-13.782-6.6803 0-11.951 5.8148-12.717 13.782h24.236z"/>
</g>
</g>
</g>
</g>
</svg>
