<?xml version="1.0" encoding="UTF-8"?>
<svg version="1.1" viewBox="0 0 897 452" xmlns="http://www.w3.org/2000/svg">
<title>IPAD 2</title>
<desc>Created with Sketch.</desc>
<g fill="none" fill-rule="evenodd">
<g transform="translate(681 55)" stroke="#7E89A3">
<path id="bezel" d="m202.99 317h-190.89c-6.635 0-12.014-5.377-12.014-12.01v-292.9c0-6.633 5.378-12.01 12.014-12.01h190.89c6.636 0 12.014 5.377 12.014 12.01v292.9c0 6.633-5.378 12.01-12.014 12.01z" fill="#FDFDFD" stroke-width="2"/>
<path d="m202.99 317h-190.89c-6.635 0-12.014-5.377-12.014-12.01v-292.9c0-6.633 5.378-12.01 12.014-12.01h190.89c6.636 0 12.014 5.377 12.014 12.01v292.9c0 6.633-5.378 12.01-12.014 12.01z" fill="#FDFDFD" stroke-width="2"/>
<rect id="screen" x="17" y="32" width="182" height="252.92" fill="#fff"/>
<circle id="a" cx="108.02" cy="300.02" r="8.021"/>
<circle id="d" cx="106.99" cy="16.99" r="2.99"/>
</g>
<g transform="translate(1 1)" stroke="#8492A5">
<path id="c" d="m594 0h-496c-13.496 0-25 11.074-25 24.79v326.24l546-1e-5v-326.24c-2.9e-5 -13.717-11.463-24.79-25-24.79z" fill="#FEFEFE" stroke-width="2"/>
<circle cx="347" cy="19" r="4" stroke-width="2"/>
<g transform="translate(0 351)">
<path d="m640.81 31.01h-589.52c-30.647 0-51.288-10.516-51.288-14.988v-13.594c0-1.344 1.335-2.428 2.995-2.428h686.11c1.662 0 2.999 1.084 2.999 2.428v14.129c-7e-3 3.535-15.991 14.453-51.291 14.453z" fill="#FDFDFD" stroke-width="2"/>
<path d="m0.5 14.5h689.74" stroke-linecap="square"/>
</g>
<rect id="b" x="95" y="39" width="501.07" height="292.01" fill="#fff"/>
<path d="m421 352v3.087c0 2.201-4.3333 2.8657-7.6133 2.8657h-134.57c-3.451 0-7.8153-0.66371-7.8153-2.8657v-3.087" fill="#fff"/>
</g>
<g transform="translate(576 177)" stroke="#7E89A3">
<path d="m130 257.96c0 8.833-7.191 15.992-16.062 15.992h-97.875c-8.871 0-16.062-7.159-16.062-15.992v-241.89c0-8.833 7.191-15.992 16.062-15.992h97.875c8.871 0 16.062 7.159 16.062 15.992v241.89z" fill="#FDFDFD" stroke-width="2"/>
<rect x="9" y="36" width="111.93" height="199.08" fill="#fff"/>
<path d="m77 25.746c0 0.635-0.439 1.147-0.98 1.147h-20.102c-0.542 0-0.98-0.513-0.98-1.147v-2.58c0-0.635 0.439-1.147 0.98-1.147h20.102c0.541 0 0.98 0.513 0.98 1.147v2.58z"/>
<circle cx="66" cy="12" r="3"/>
<ellipse cx="65.04" cy="254" rx="10.04" ry="10.001"/>
</g>
</g>
</svg>
