<?xml version="1.0" encoding="UTF-8"?>
<svg version="1.1" viewBox="0 0 1477 500" xmlns="http://www.w3.org/2000/svg" xmlns:xlink="http://www.w3.org/1999/xlink">
<title>Play Store</title>
<desc>Created with Sketch.</desc>
<defs>
<linearGradient id="j" x1="58.917%" x2="90.81%" y1="9.5903%" y2="60.851%">
<stop stop-color="#FF177B" offset="0"/>
<stop stop-color="#FFEC73" offset="1"/>
</linearGradient>
<linearGradient id="i" x1="37.103%" x2="0%" y1="-44.035%" y2="101.06%">
<stop stop-color="#064AA2" offset="0"/>
<stop stop-color="#63FFD4" offset="1"/>
</linearGradient>
<path id="b" d="m139 127-134-127c-3.1262 0.72619-5 3.0646-5 7v120 123c0 3.3389 1.346 5.3254 3 6l136-129z"/>
<path id="c" d="m5.5344 127.79 77.452-42.547c19.073-10.568 34.209-18.956 34.209-18.956l56.324-30.337-37.498-36.437-136 129.02c1.5158 0.48751 4.1875 0.22104 6.2719-0.8077"/>
<linearGradient id="h" x1="78.645%" x2="2.4952%" y1="50%" y2="100%">
<stop stop-color="#FF4521" offset="0"/>
<stop stop-color="#8A33DB" offset="1"/>
</linearGradient>
<linearGradient id="g" x2="64.224%" y1="-24.186%" y2="100%">
<stop stop-color="#00A3B5" offset="0"/>
<stop stop-color="#D6FFA1" offset="1"/>
</linearGradient>
<path id="a" d="m7.129 1.1469c-2.5796-1.3816-5.1427-1.7768-7.216-1.2182l134.11 127.18 37.103-35.111-55.927-30.979s-52.713-29.205-84.541-46.84l-23.53-13.035z"/>
</defs>
<g fill="none" fill-rule="evenodd">
<g transform="translate(-461 -270)">
<g transform="translate(461 270)">
<rect width="1477" height="500" rx="60" fill="#000"/>
<g transform="translate(60 179)">
<path d="m120.18 61.023s-101.91-56.46-107.89-59.777c-5.995-3.3171-11.96-1.3049-11.96 5.6281v120.53 122.98c0 5.1898 4.2622 7.441 9.4705 4.5622 5.1983-2.8788 110.38-61.162 110.38-61.162s14.289-7.9124 21.433-11.869c11.498-6.367 34.494-19.101 34.494-19.101s47.452-26.298 53.766-29.784c6.3037-3.4964 5.6963-8.2878 0.37842-11.047-5.3278-2.7493-54.144-29.983-54.144-29.983l-55.927-30.979z" fill="url(#j)"/>
<mask id="e" fill="white">
<use xlink:href="#b"/>
</mask>
<use fill="url(#i)" xlink:href="#b"/>
<path id="Fill-1" d="m176 92-56-31c-0.19612 0.45109-102.06-56.113-108-59-6.0372-3.7593-12-1.7434-12 5v121 123c0 5.3614 4.2606 7.6168 9 5 5.6632-3.1514 110.8-61.542 111-62l56-31c-0.29096 0.43197 47.143-25.914 53-29 6.7553-3.9097 6.1481-8.7098 1-11-5.4934-3.2285-54.291-30.513-54-31" mask="url(#e)"/>
<g transform="translate(2.9834 127.5)">
<mask id="d" fill="white">
<use xlink:href="#c"/>
</mask>
<path id="Fill-7" d="m117.02-66.504c-0.19612 0.45109-102.06-56.113-108-59-6.0372-3.7593-12-1.7434-12 5v121 123c0 5.3614 4.2606 7.6168 9 5 5.6632-3.1514 110.8-61.542 111-62l56-31c-0.29096 0.43197 47.143-25.914 53-29 6.7553-3.9097 6.1481-8.7098 1-11-5.4934-3.2285-54.291-30.513-54-31l-56-31z" fill="url(#h)" mask="url(#d)"/>
</g>
<g transform="translate(4.9793)">
<mask id="f" fill="white">
<use xlink:href="#a"/>
</mask>
<use fill="url(#g)" xlink:href="#a"/>
<path id="Fill-4" d="m171.02 92-56-31c-0.19612 0.45109-102.06-56.113-108-59-6.0372-3.7593-12-1.7434-12 5v121 123c0 5.3614 4.2606 7.6168 9 5 5.6632-3.1514 110.8-61.542 111-62l56-31c-0.29096 0.43197 47.143-25.914 53-29 6.7553-3.9097 6.1481-8.7098 1-11-5.4934-3.2285-54.291-30.513-54-31" mask="url(#f)"/>
</g>
</g>
<g transform="translate(347 201)" fill="#fff">
<path id="k" d="m664.62 147.87-11.074 10.511c-2.5592 1.4148-5.1046 3.0572-7.6432 4.2236-7.6912 3.5127-15.513 4.3961-22.463 4.3961-7.3962 0-18.991-0.48309-30.82-9.0889-16.432-11.642-23.616-31.656-23.616-49.095 0-36.107 29.221-53.816 53.056-53.816 8.3293 0 16.885 2.098 23.842 6.5217 11.568 7.6949 14.559 17.695 16.219 23.05l-54.429 22.118-17.825 1.394c5.7701 29.606 25.681 46.825 47.684 46.825 10.991 0 19.149-3.6093 26.635-7.3291 0 0 1.5026-0.78674 0.43224 0.28985zm-33.256-59.392c4.3682-1.6258 6.6405-3.0292 6.6405-6.2946 0-9.3654-10.344-20.183-22.689-20.183-9.1434 0-26.311 7.295-26.311 32.626 0 3.9532 0.46124 8.1635 0.69186 12.374l41.668-18.522z"/>
<path id="l" d="m551.03 146.6c0 9.0254 1.6002 10.43 9.1842 11.139 3.9527 0.46814 7.8917 0.67467 11.79 1.1428l-8.5345 5.1151h-40.669c5.3341-6.967 6.2504-7.6623 6.2504-12.302v-5.1839l-0.088901-138.13h-17.958l17.288-8.3852h33.003c-7.1531 4.1719-9.2936 6.7123-10.21 14.843l-0.054709 131.76"/>
<path id="m" d="m487.93 66.398c5.2912 4.3847 16.331 13.691 16.331 31.34 0 17.202-9.6197 25.31-19.321 32.985-2.9767 3.0218-6.4587 6.2983-6.4587 11.365 0 5.1419 3.482 7.9297 5.9876 10.008l8.3225 6.4773c10.118 8.6111 19.342 16.506 19.342 32.545 0 21.848-20.974 43.882-60.606 43.882-33.386 0-49.526-16.031-49.526-33.219 0-8.3633 4.1306-20.21 17.758-28.325 14.283-8.8039 33.632-9.9809 43.995-10.669-3.2362-4.2126-6.9298-8.6249-6.9298-15.825 0-3.9373 1.1743-6.2846 2.3076-9.0517-2.5193 0.24092-5.0591 0.48872-7.3667 0.48872-24.435 0-38.247-18.379-38.247-36.489 0-10.683 4.8338-22.536 14.761-31.127 13.136-10.903 28.798-12.782 41.244-12.782h47.477l-14.761 8.3978h-14.31zm-16.209 102.85c-1.9065-0.25227-3.049-0.25227-5.3478-0.25227-2.1061 0-14.653 0.4625-24.371 3.7841-5.1413 1.9131-20.001 7.5682-20.001 24.366 0 16.762 16.043 28.85 40.862 28.85 22.3 0 34.138-10.883 34.138-25.536 0-12.06-7.6604-18.423-25.28-31.212zm6.5151-44.737c5.3025-5.3456 5.7648-12.729 5.7648-16.922 0-16.654-9.8368-42.593-28.906-42.593-5.9483 0-12.393 3.0125-16.05 7.6719-3.8817 4.8241-5.0442 11.082-5.0442 17.1 0 15.508 8.9599 41.228 28.668 41.228 5.7512 0 11.937-2.8203 15.568-6.4847z"/>
<path id="p" d="m344.34 167c-36.7 0-56.337-28.951-56.337-55.165 0-30.629 24.686-56.835 59.799-56.835 33.943 0 55.201 26.92 55.201 55.186 0 27.607-21.012 56.814-58.663 56.814zm28.702-18.935c5.6022-7.5069 6.9616-16.877 6.9616-26.01 0-20.658-9.7215-60.055-38.453-60.055-7.6412 0-15.337 3.0236-20.885 7.9587-9.0486 8.209-10.662 18.524-10.662 28.644 0 23.174 11.314 61.397 39.394 61.397 9.0624 0 18.31-4.4416 23.645-11.935z"/>
<path id="n" d="m221.33 167c-36.723 0-56.333-28.951-56.333-55.165 0-30.629 24.703-56.835 59.817-56.835 33.937 0 55.183 26.92 55.183 55.186 0 27.607-20.993 56.814-58.667 56.814zm28.716-18.935c5.5637-7.5069 6.9512-16.877 6.9512-26.01 0-20.658-9.7537-60.055-38.472-60.055-7.6725 0-15.29 3.0236-20.854 7.9587-9.0668 8.209-10.674 18.524-10.674 28.644 0 23.174 11.368 61.397 39.413 61.397 9.0462 0 18.285-4.4416 23.636-11.935z"/>
<path id="q" d="m149.77 160.08-31.086 7.1645c-12.595 1.9986-23.905 3.7551-35.882 3.7551-59.959 0-82.807-44.418-82.807-79.183 0-42.454 32.371-81.817 87.809-81.817 11.729 0 23.012 1.7358 33.292 4.5573 16.292 4.6057 23.912 10.283 28.674 13.61l-18.058 17.261-7.6135 1.715 5.4284-8.7066c-7.3524-7.2267-20.868-20.567-46.519-20.567-34.295 0-60.166 26.237-60.166 64.542 0 41.14 29.54 79.84 76.918 79.84 13.921 0 21.088-2.8146 27.595-5.4425v-35.269l-32.824 1.7773 17.398-9.4051h46.066l-5.6345 5.4563c-1.5186 1.3001-1.7247 1.7427-2.1507 3.4854-0.22676 1.9917-0.43977 8.3263-0.43977 10.553v26.673"/>
<path id="o" d="m731.7 148.94v59.06h-11.702v-150.29h11.702v17.117c7.6234-11.063 21.554-19.831 37.733-19.831 29.02 0 48.565 22.064 48.565 56.992 0 34.694-19.545 57.219-48.565 57.219-15.274 0-28.958-7.8953-37.733-20.271zm74.298-36.047c0-26.602-13.742-46.892-38.108-46.892-15.132 0-29.603 11.999-35.892 22.464v48.614c6.2894 10.485 20.76 22.922 35.892 22.922 24.366 0 38.108-20.464 38.108-47.108z"/>
<path d="m834 16h12v151h-12v-151z"/>
<path d="m976.46 197.6c2.5024 1.1203 6.7738 1.8076 9.4819 1.8076 7.1577 0 12.142-2.9348 16.619-13.299l8.5358-19.389-46.1-109.72h13.054l39.546 95.081 39.162-95.081h13.239l-56.226 132.75c-5.8345 13.677-15.015 20.255-27.623 20.255-3.7845 0-8.7757-0.67356-11.696-1.5739l2.0088-10.825"/>
<path d="m943.44 166.85c-0.78603-3.7936-1.379-7.138-1.8134-9.9296-0.35854-2.7847-0.56539-5.6316-0.56539-8.5269-4.0336 5.9356-9.7496 10.876-17.051 14.767-7.3087 3.9179-14.252 5.8389-23.774 5.8389-11.466 0-20.368-2.8262-26.718-8.5614-6.3296-5.7283-9.5151-13.488-9.5151-23.307 0-9.8052 4.6128-17.765 13.811-23.853 9.198-6.1153 21.085-9.1557 35.799-9.1557h27.449v-13.592c0-7.8289-2.6615-13.986-7.9775-18.45-5.3367-4.4707-12.825-6.7303-22.533-6.7303-8.8739 0-16.072 2.0661-21.554 6.0876-5.4333 4.1045-8.1706 9.1902-8.1706 15.319h-12.046l-0.24822-0.58734c-0.43439-8.2643 3.3372-15.513 11.356-21.773 7.9844-6.2535 18.444-9.3975 31.317-9.3975 12.832 0 23.216 3.0956 31.041 9.2731 7.819 6.1153 11.742 14.953 11.742 26.506v53.967c0 3.8765 0.18617 7.6217 0.66882 11.27 0.49644 3.6554 1.2894 7.3038 2.3443 10.835h-13.562zm-41.788-7.851c9.9892 0 17.168-2.2503 24.505-6.7024 7.2887-4.4243 12.249-10.196 14.846-17.183v-21.114h-27.557c-10.527 0-19.241 2.3476-26.096 7.0844-6.8685 4.723-10.347 10.439-10.347 17.086 0 6.2718 2.2045 11.286 6.586 15.086 4.3953 3.8409 10.403 5.7439 18.063 5.7439z"/>
</g>
<g transform="translate(343 80)" fill="#fff">
<path d="m0.042471 35.311c0-21.54 17.201-35.396 38.59-35.396 14.335 0 23.71 6.364 29.552 14.157l-10.471 5.6462c-3.9678-5.1335-10.918-9.1262-19.081-9.1262-14.549 0-25.357 10.254-25.357 24.719 0 14.253 10.808 24.719 25.357 24.719 7.5017 0 14.115-3.1788 17.421-6.1525v-10.568h-22.05v-10.568h34.842v25.546c-7.1641 7.4919-17.531 12.516-30.213 12.516-21.389 0-38.59-14.048-38.59-35.492"/>
<path d="m85.525 69.761v-68.803h51.081v10.633h-38.002v17.734h37.22v10.626h-37.22v19.184h38.002v10.626h-51.081"/>
<path d="m171.34 69.761v-58.17h-22.229v-10.633h57.336v10.633h-22.229v58.17h-12.878"/>
<path d="m252.32 0.95753h12.51v68.803h-12.51v-68.803z"/>
<path d="m300.62 69.761v-58.17h-22.236v-10.633h57.336v10.633h-22.222v58.17h-12.878"/>
<path d="m378.46 35.362c0-20.448 15.733-35.447 38.054-35.447 22.195 0 38.047 14.999 38.047 35.447 0 20.442-15.852 35.441-38.047 35.441-22.321 0-38.054-14.999-38.054-35.441zm62.548-0.52444c0-14.031-9.6399-24.498-24.495-24.498-14.965 0-24.502 10.467-24.502 24.498 0 13.923 9.5361 24.498 24.502 24.498 14.855 0 24.495-10.575 24.495-24.498z"/>
<path d="m520.31 69.761-38.291-49.2v49.2h-12.867v-68.803h13.203l37.514 47.66v-47.66h12.873v68.803h-12.434"/>
</g>
</g>
</g>
</g>
</svg>
